<svg xmlns="http://www.w3.org/2000/svg" xmlns:xlink="http://www.w3.org/1999/xlink" aria-hidden="true" role="img" class="iconify iconify--logos" width="31.88" height="32" preserveAspectRatio="xMidYMid meet" viewBox="0 0 256 257"><defs><linearGradient id="IconifyId1813088fe1fbc01fb466" x1="-.828%" x2="57.636%" y1="-7.652%" y2="78.411%"><stop offset="0%" stop-color="#41D1FF"></stop><stop offset="100%" stop-color="#BD34FE"></stop></linearGradient><linearGradient id="IconifyId1813088fe1fbc01fb467" x1="43.376%" x2="50.316%" y1="2.242%" y2="89.03%"><stop offset="0%" stop-color="#FFEA83"></stop><stop offset="8.333%" stop-color="#FFDD35"></stop><stop offset="100%" stop-color="#FFA800"></stop></linearGradient></defs><path fill="url(#IconifyId1813088fe1fbc01fb466)" d="M255.153 37.938L134.897 252.976c-2.483 4.144-8.861 4.736-12.604 1.092l-22.647-26.506c-2.584-3.012-2.584-7.631 0-10.643L165.646 85.355a6.537 6.537 0 0 0-1.047-11.289l-79.645-7.72c-4.844-.469-8.994-4.823-8.994-9.735v-19.41c0-5.316 3.652-9.979 8.99-10.442l80.949-7.82c4.947-.453 8.596-4.793 8.596-9.792V10.923c0-4.744 2.66-9.108 6.923-11.176l27.019-13.6c2.529-1.274 5.541.066 6.321 2.653l13.989 42.905c.575 1.735.403 3.667-.558 5.219"></path><path fill="url(#IconifyId1813088fe1fbc01fb467)" d="M185.432.063L96.44 17.557a3.772 3.772 0 0 0-2.715 3.691c.057 1.584.697 3.93 3.607 4.47l142.216 18.143c2.498.32 5.084 1.651 5.084 5.36v19.26c0 2.501.923 3.923 1.343 4.517c.537.978 1.768 1.741 3.591 1.999l27.18 3.318c.104-1.329.669-2.659.669-4.365v-87.236c0-1.673-.231-3.264-.231-5.842C294.242 1.622 287.333.001 280.404 0c-4.208 0-7.52 1.892-10.882 5.923B"></path></svg>
